# xmcd CD database file
#
# Track frame offsets:
#	150
#	14551
#	30414
#	52689
#	72780
#	95460
#
# Disc length: 1532 seconds
#
# Revision: 0
# Processed by: cddbd v1.5.2PL0 Copyright (c) Steve Scherf et al.
# Submitted via: CDex 1.70beta2
#
DISCID=3e05fa06
DTITLE=黒夜葬 - Gothic
DYEAR=2007
DGENRE=東方アレンジ
TTITLE0=Nightmare
TTITLE1=歪-
TTITLE2=ﾙﾋﾓ￟ - ﾌﾇﾑﾹﾏﾭﾏﾗ
TTITLE3=Doll
TTITLE4=Gothic Black
TTITLE5=Deadly Phantom
EXTD=YEAR: 2007
EXTT0=
EXTT1=
EXTT2=
EXTT3=
EXTT4=
EXTT5=
PLAYORDER=
